<svg width="40" height="43" viewBox="0 0 40 43" fill="none" xmlns="http://www.w3.org/2000/svg">
<path d="M13.379 34.2742C13.379 34.4453 13.1935 34.5822 12.9597 34.5822C12.6935 34.6078 12.5081 34.471 12.5081 34.2742C12.5081 34.1031 12.6935 33.9663 12.9274 33.9663C13.1694 33.9406 13.379 34.0775 13.379 34.2742ZM10.871 33.8893C10.8145 34.0604 10.9758 34.2571 11.2177 34.3084C11.4274 34.394 11.6694 34.3084 11.7177 34.1374C11.7661 33.9663 11.6129 33.7695 11.371 33.6926C11.1613 33.6327 10.9274 33.7182 10.871 33.8893ZM14.4355 33.7439C14.2016 33.8038 14.0403 33.9663 14.0645 34.163C14.0887 34.3341 14.2984 34.4453 14.5403 34.3854C14.7742 34.3256 14.9355 34.163 14.9113 33.9919C14.8871 33.8294 14.6694 33.7182 14.4355 33.7439ZM19.7419 0.965332C8.55645 0.965332 0 9.97259 0 21.8369C0 31.3231 5.62903 39.4408 13.6694 42.2978C14.7016 42.4945 15.0645 41.8188 15.0645 41.2628C15.0645 40.7324 15.0403 37.807 15.0403 36.0107C15.0403 36.0107 9.39516 37.2938 8.20968 33.4616C8.20968 33.4616 7.29032 30.9724 5.96774 30.3309C5.96774 30.3309 4.12097 28.9879 6.09677 29.0136C6.09677 29.0136 8.10484 29.1847 9.20968 31.2205C10.9758 34.5223 13.9355 33.5728 15.0887 33.0082C15.2742 31.6396 15.7984 30.6901 16.379 30.1256C11.871 29.5952 7.32258 28.9024 7.32258 20.6735C7.32258 18.3212 7.93548 17.1408 9.22581 15.6353C9.01613 15.0793 8.33064 12.7868 9.43548 9.82717C11.121 9.27117 15 12.1367 15 12.1367C16.6129 11.6577 18.3468 11.4096 20.0645 11.4096C21.7823 11.4096 23.5161 11.6577 25.129 12.1367C25.129 12.1367 29.0081 9.26262 30.6935 9.82717C31.7984 12.7954 31.1129 15.0793 30.9032 15.6353C32.1936 17.1493 32.9839 18.3298 32.9839 20.6735C32.9839 28.928 28.2339 29.5867 23.7258 30.1256C24.4677 30.8013 25.0968 32.0844 25.0968 34.0946C25.0968 36.9773 25.0726 40.5442 25.0726 41.2457C25.0726 41.8017 25.4435 42.4774 26.4677 42.2807C34.5323 39.4408 40 31.3231 40 21.8369C40 9.97259 30.9274 0.965332 19.7419 0.965332ZM7.83871 30.4677C7.73387 30.5533 7.75806 30.75 7.89516 30.9125C8.02419 31.0494 8.20968 31.1093 8.31452 30.9981C8.41935 30.9125 8.39516 30.7158 8.25806 30.5533C8.12903 30.4164 7.94355 30.3565 7.83871 30.4677ZM6.96774 29.7749C6.91129 29.8861 6.99194 30.0229 7.15323 30.1085C7.28226 30.194 7.44355 30.1684 7.5 30.0486C7.55645 29.9374 7.47581 29.8005 7.31452 29.715C7.15323 29.6637 7.02419 29.6893 6.96774 29.7749ZM9.58065 32.8201C9.45161 32.9313 9.5 33.1879 9.68548 33.3504C9.87097 33.5471 10.1048 33.5728 10.2097 33.4359C10.3145 33.3247 10.2661 33.0681 10.1048 32.9056C9.92742 32.7089 9.68548 32.6832 9.58065 32.8201ZM8.66129 31.5626C8.53226 31.6482 8.53226 31.8706 8.66129 32.0673C8.79032 32.2641 9.00806 32.3496 9.1129 32.2641C9.24193 32.1529 9.24193 31.9305 9.1129 31.7337C9 31.537 8.79032 31.4514 8.66129 31.5626Z" fill="#CCD8E4"/>
</svg>
