<svg width="104" height="104" viewBox="0 0 104 104" fill="none" xmlns="http://www.w3.org/2000/svg">
<circle cx="52" cy="52" r="50" fill="#CDD9E5" stroke="#2D333B" stroke-width="4" stroke-dasharray="2 2"/>
<path d="M31.408 38.024C28.976 38.824 27.088 40.152 25.744 42.008C24.432 43.832 23.776 46.104 23.776 48.824C23.776 50.04 23.888 50.872 24.112 51.32C24.336 51.768 24.448 52.04 24.448 52.136C21.024 52.136 19.312 50.68 19.312 47.768C19.312 45.784 20.064 43.8 21.568 41.816C23.104 39.8 25.056 38.168 27.424 36.92C29.824 35.64 32.208 35 34.576 35C35.76 35 36.976 35.224 38.224 35.672L37.12 60.968L47.68 35.672H54.592L49.552 71H42.64L45.712 49.448L36.688 71H30.112L31.072 49.352L23.056 71H19.216L31.408 38.024ZM63.3078 76.472C62.1238 76.472 61.0838 76.376 60.1878 76.184C59.2918 75.992 58.5078 75.528 57.8358 74.792C57.1958 74.056 56.8758 72.92 56.8758 71.384C56.8758 69.24 57.5158 66.36 58.7958 62.744C60.1078 59.128 61.8198 55.496 63.9318 51.848C62.3318 51.944 61.0678 52.184 60.1398 52.568C59.2118 52.952 58.6038 53.544 58.3158 54.344C58.4438 54.344 58.5718 54.504 58.6998 54.824C58.8598 55.144 58.9398 55.48 58.9398 55.832C58.9398 56.408 58.6838 56.872 58.1718 57.224C57.6598 57.544 57.0198 57.704 56.2518 57.704C55.3558 57.704 54.6358 57.464 54.0918 56.984C53.5478 56.504 53.2758 55.816 53.2758 54.92C53.2758 53.832 53.6918 52.84 54.5238 51.944C55.3878 51.048 56.5718 50.344 58.0758 49.832C59.5798 49.288 61.2438 49.016 63.0678 49.016C63.7398 49.016 64.5718 49.064 65.5638 49.16C68.1878 45 70.9558 41.608 73.8678 38.984C76.8118 36.328 79.6118 35 82.2678 35C83.8038 35 85.0678 35.224 86.0598 35.672L78.5238 71H71.6118L75.3078 53.576C74.1238 53.032 73.0358 52.632 72.0438 52.376C71.0518 52.12 69.9958 51.944 68.8758 51.848C67.0518 55.784 65.5478 59.816 64.3638 63.944C63.2118 68.04 62.6358 71.32 62.6358 73.784C62.6358 75 62.8598 75.896 63.3078 76.472ZM78.5238 38.408C77.1478 39.144 75.7078 40.52 74.2038 42.536C72.7318 44.52 71.2918 46.936 69.8838 49.784C72.1878 50.232 74.1398 50.792 75.7398 51.464L78.5238 38.408Z" fill="#2D333B"/>
</svg>
