<svg width="40" height="33" viewBox="0 0 40 33" fill="none" xmlns="http://www.w3.org/2000/svg">
<path d="M39.2422 10.7762C39.5469 10.5193 40 10.7596 40 11.1657V28.1117C40 30.3077 38.3203 32.0893 36.25 32.0893H3.75C1.67969 32.0893 0 30.3077 0 28.1117V11.174C0 10.7596 0.445312 10.5276 0.757812 10.7845C2.50781 12.2264 4.82812 14.0577 12.7969 20.1981C14.4453 21.4742 17.2266 24.159 20 24.1425C22.7891 24.1673 25.625 21.4245 27.2109 20.1981C35.1797 14.0577 37.4922 12.2181 39.2422 10.7762ZM20 21.4825C21.8125 21.5156 24.4219 19.0628 25.7344 18.0518C36.1016 10.0718 36.8906 9.37576 39.2812 7.38698C39.7344 7.01408 40 6.43402 40 5.82082V4.24636C40 2.05042 38.3203 0.268799 36.25 0.268799H3.75C1.67969 0.268799 0 2.05042 0 4.24636V5.82082C0 6.43402 0.265625 7.0058 0.71875 7.38698C3.10938 9.36748 3.89844 10.0718 14.2656 18.0518C15.5781 19.0628 18.1875 21.5156 20 21.4825Z" fill="#CCD8E4"/>
</svg>
