<svg width="40" height="44" viewBox="0 0 40 44" fill="none" xmlns="http://www.w3.org/2000/svg">
<path d="M20 0.965332C8.95161 0.965332 0 10.4602 0 22.179C0 33.8979 8.95161 43.3927 20 43.3927C31.0484 43.3927 40 33.8979 40 22.179C40 10.4602 31.0484 0.965332 20 0.965332ZM29.8226 15.4984L26.5403 31.9048C26.2984 33.0681 25.6452 33.3504 24.7339 32.803L19.7339 28.8938L17.3226 31.3573C17.0565 31.6396 16.8306 31.8791 16.3145 31.8791L16.6694 26.4816L25.9355 17.6027C26.3387 17.2263 25.8468 17.0125 25.3145 17.3888L13.8629 25.036L8.92742 23.4022C7.85484 23.0429 7.83065 22.2645 9.15323 21.7171L28.4355 13.8304C29.3306 13.4882 30.1129 14.0614 29.8226 15.4984Z" fill="#CCD8E4"/>
</svg>
